<svg id="svg" version="1.1" xmlns="http://www.w3.org/2000/svg" xmlns:xlink="http://www.w3.org/1999/xlink" width="244" height="243" viewBox="79 79 244 243" style=""><g id="svgg"><path id="path0" d="M186.719 83.802 C 111.505 93.211,64.572 168.923,90.063 239.727 C 116.843 314.112,209.862 340.876,271.853 292.033 L 275.151 289.434 288.455 302.675 C 300.768 314.932,301.914 315.967,303.860 316.600 C 311.529 319.096,318.522 312.006,316.220 304.069 C 315.564 301.807,315.268 301.475,302.460 288.613 L 289.371 275.468 292.491 271.425 C 319.726 236.144,324.522 188.622,304.885 148.633 C 287.936 114.118,255.913 90.590,217.383 84.342 C 210.662 83.253,193.524 82.951,186.719 83.802 M206.542 100.397 C 281.885 106.144,324.694 189.629,284.653 252.727 C 249.642 307.898,174.042 316.120,128.889 269.667 C 67.529 206.540,110.491 102.940,199.219 100.071 C 200.400 100.033,203.696 100.180,206.542 100.397 M193.164 121.728 C 177.152 124.616,164.602 135.902,160.299 151.283 C 159.281 154.920,158.535 165.342,159.124 167.689 L 159.357 168.619 162.589 168.075 C 166.212 167.465,173.371 167.621,177.060 168.391 C 179.745 168.951,179.742 168.954,179.285 166.981 C 175.155 149.170,194.573 134.791,210.503 143.864 C 225.970 152.674,223.887 176.447,207.103 182.664 C 206.097 183.037,205.206 183.393,205.124 183.455 C 205.041 183.517,205.520 184.189,206.186 184.948 C 209.080 188.244,212.645 194.248,214.254 198.535 C 215.098 200.785,214.955 200.778,218.886 198.735 C 248.517 183.330,248.276 140.473,218.474 125.447 C 210.988 121.673,201.334 120.254,193.164 121.728 " stroke="none" fill="#404b3d" fill-rule="evenodd"/><path id="path1" d="M0.000 200.000 L 0.000 400.000 200.000 400.000 L 400.000 400.000 400.000 200.000 L 400.000 0.000 200.000 0.000 L 0.000 0.000 0.000 200.000 M209.375 83.218 C 302.490 91.563,349.888 200.226,291.915 272.446 L 289.419 275.555 302.361 288.398 C 316.549 302.477,316.780 302.775,316.780 307.031 C 316.780 312.954,312.630 317.187,306.836 317.175 C 302.595 317.166,302.207 316.864,288.086 302.558 L 275.195 289.499 272.656 291.623 C 251.665 309.180,219.771 319.097,191.602 316.827 C 114.874 310.644,64.384 234.382,89.231 162.203 C 106.598 111.755,157.128 78.535,209.375 83.218 M188.672 101.011 C 105.920 110.894,71.041 211.354,129.857 270.415 C 180.281 321.050,265.946 303.311,292.586 236.719 C 320.317 167.399,262.711 92.168,188.672 101.011 M208.718 121.900 C 240.048 128.285,252.024 167.567,229.714 190.770 C 225.806 194.834,215.851 201.603,215.067 200.729 C 214.996 200.650,214.413 199.325,213.770 197.785 C 212.083 193.740,210.018 190.197,207.180 186.478 L 204.692 183.217 205.764 182.959 C 215.459 180.625,222.729 168.492,220.559 158.268 C 216.426 138.804,191.168 134.888,181.597 152.227 C 179.053 156.837,178.201 163.864,179.707 167.826 C 180.237 169.219,180.280 169.210,176.538 168.501 C 173.265 167.881,162.761 167.928,160.096 168.575 L 159.058 168.827 158.774 165.790 C 156.210 138.437,181.370 116.327,208.718 121.900 M174.556 175.986 C 194.384 178.752,208.547 194.535,209.952 215.430 C 211.145 233.177,225.973 242.722,240.898 235.350 C 256.876 227.458,255.711 203.679,239.010 196.813 L 236.029 195.587 238.718 192.044 C 241.535 188.334,243.892 184.160,245.310 180.371 C 246.309 177.699,245.817 177.772,249.727 179.723 C 280.051 194.854,279.907 238.989,249.486 253.478 C 221.883 266.626,192.273 248.699,189.864 217.383 C 188.228 196.101,164.991 187.374,152.423 203.320 C 136.639 223.347,162.339 248.650,182.376 232.812 C 183.510 231.916,184.481 231.242,184.534 231.314 C 184.587 231.386,185.032 232.588,185.524 233.984 C 186.988 238.138,189.849 243.067,193.042 246.937 L 194.544 248.757 192.292 250.376 C 172.039 264.935,143.051 257.357,131.830 234.570 C 117.222 204.905,141.659 171.398,174.556 175.986 " stroke="none" fill="#fbfbfb" fill-rule="evenodd"/><path id="path2" d="M245.397 180.566 C 244.136 183.873,241.520 188.544,239.145 191.733 C 236.152 195.750,236.056 195.258,240.227 197.241 C 253.875 203.727,256.689 221.910,245.642 232.237 C 233.420 243.664,213.769 237.030,210.323 220.313 C 209.990 218.701,209.572 217.235,209.393 217.054 C 208.968 216.623,193.571 216.346,191.797 216.737 L 190.430 217.038 190.512 220.462 C 190.807 232.796,200.530 247.149,212.695 253.208 C 233.818 263.729,259.758 254.331,268.941 232.830 C 275.746 216.897,271.914 198.043,259.626 187.007 C 251.169 179.410,246.624 177.353,245.397 180.566 " stroke="none" fill="#abdd5b" fill-rule="evenodd"/><path id="path3" d="M163.477 176.658 C 162.188 176.852,160.381 177.349,159.462 177.763 C 158.543 178.177,157.457 178.516,157.049 178.516 C 156.640 178.516,156.074 178.735,155.790 179.004 C 155.506 179.272,154.698 179.518,153.994 179.550 C 152.027 179.639,146.821 182.429,145.898 183.890 C 145.469 184.570,144.810 185.133,144.434 185.141 C 144.058 185.149,143.750 185.332,143.750 185.547 C 143.750 185.762,143.507 185.938,143.211 185.938 C 142.052 185.938,135.686 192.766,134.981 194.767 C 134.609 195.819,134.160 196.962,133.981 197.308 C 133.758 197.740,133.921 198.207,134.504 198.802 C 135.322 199.638,135.324 199.664,134.570 199.541 C 134.141 199.471,133.697 199.190,133.585 198.916 C 133.275 198.159,130.165 203.142,129.714 205.118 C 128.934 208.531,128.429 214.725,128.634 218.359 C 129.056 225.843,129.302 226.980,131.377 231.055 C 132.252 232.773,132.985 234.355,133.006 234.570 C 133.027 234.785,133.255 234.917,133.514 234.863 C 133.773 234.810,133.984 234.972,133.984 235.223 C 133.984 235.475,134.292 236.043,134.668 236.486 C 135.324 237.259,135.323 237.269,134.636 236.735 C 134.107 236.324,134.235 236.784,135.127 238.500 C 136.520 241.178,138.255 243.204,140.311 244.549 C 141.104 245.068,141.929 245.877,142.142 246.346 C 142.356 246.814,142.884 247.310,143.316 247.447 C 143.747 247.584,144.196 247.995,144.312 248.361 C 144.732 249.686,152.238 253.515,154.418 253.515 C 154.806 253.516,155.016 253.691,154.883 253.906 C 154.750 254.121,154.985 254.297,155.404 254.297 C 155.823 254.297,156.264 254.550,156.383 254.860 C 156.501 255.170,156.916 255.430,157.303 255.439 C 157.691 255.448,159.590 255.726,161.523 256.057 C 163.545 256.404,165.952 256.565,167.188 256.437 C 170.737 256.069,172.593 256.038,172.401 256.348 C 172.170 256.720,172.485 256.706,174.414 256.261 C 175.273 256.062,176.906 255.808,178.043 255.697 C 180.028 255.503,181.803 254.773,183.342 253.520 C 183.740 253.195,184.092 252.986,184.123 253.055 C 184.154 253.124,184.675 252.992,185.279 252.762 C 185.884 252.532,186.543 252.344,186.744 252.344 C 186.945 252.344,187.109 252.205,187.109 252.036 C 187.109 251.867,187.467 251.702,187.905 251.669 C 188.895 251.594,191.288 250.142,191.735 249.344 C 192.247 248.428,189.990 243.359,189.070 243.359 C 188.901 243.359,188.317 242.417,187.771 241.264 C 187.226 240.112,186.502 239.063,186.163 238.933 C 185.824 238.803,185.544 238.383,185.541 238.001 C 185.533 237.044,184.600 234.444,184.078 233.921 C 183.767 233.610,183.104 233.828,181.662 234.715 C 180.570 235.387,179.605 235.938,179.519 235.938 C 179.432 235.938,178.512 236.319,177.474 236.784 C 176.435 237.250,175.498 237.670,175.391 237.716 C 175.283 237.762,174.800 237.929,174.316 238.086 C 173.833 238.244,173.438 238.533,173.438 238.729 C 173.438 238.932,171.362 239.039,168.652 238.977 C 165.078 238.895,163.892 238.744,163.965 238.379 C 164.019 238.110,163.699 237.891,163.256 237.891 C 162.812 237.891,161.117 237.275,159.490 236.523 C 157.862 235.771,156.356 235.156,156.143 235.156 C 155.930 235.156,155.471 234.836,155.124 234.445 C 154.776 234.054,153.921 233.401,153.223 232.993 C 152.524 232.586,151.953 231.949,151.953 231.576 C 151.953 231.203,151.383 230.055,150.685 229.023 C 147.048 223.645,144.783 213.041,146.905 211.328 C 147.038 211.221,147.781 209.771,148.557 208.105 C 149.333 206.440,150.112 205.078,150.289 205.078 C 150.465 205.078,150.812 204.595,151.059 204.004 C 151.968 201.828,153.545 199.609,154.182 199.609 C 154.364 199.609,154.948 199.119,155.479 198.520 C 156.489 197.380,157.859 196.718,160.151 196.262 C 160.899 196.113,161.866 195.764,162.299 195.485 C 163.719 194.573,171.283 193.889,171.742 194.631 C 171.858 194.820,172.173 194.891,172.440 194.789 C 172.707 194.686,173.675 194.938,174.591 195.348 C 175.508 195.758,176.570 196.094,176.951 196.094 C 177.333 196.094,178.764 196.823,180.131 197.714 C 181.499 198.605,183.166 199.691,183.836 200.128 C 184.506 200.564,185.378 201.549,185.775 202.316 C 186.171 203.083,186.967 204.330,187.545 205.086 C 188.122 205.842,188.988 207.775,189.469 209.382 C 189.949 210.990,190.472 212.480,190.630 212.695 C 190.788 212.910,190.849 213.504,190.766 214.016 C 190.682 214.528,190.791 215.159,191.007 215.419 C 191.223 215.679,191.284 216.008,191.142 216.149 C 191.001 216.291,191.047 216.409,191.243 216.412 C 192.775 216.435,206.643 216.453,207.370 216.432 L 208.294 216.406 208.012 211.082 C 207.733 205.804,207.284 203.886,205.972 202.353 C 205.611 201.932,205.251 201.099,205.171 200.502 C 205.091 199.906,204.801 199.153,204.527 198.830 C 204.252 198.507,203.493 197.100,202.839 195.703 C 202.077 194.075,200.758 192.253,199.165 190.625 C 197.798 189.229,196.368 187.603,195.987 187.012 C 195.606 186.421,195.115 185.938,194.897 185.938 C 194.678 185.938,194.151 185.614,193.727 185.219 C 193.303 184.823,192.475 184.255,191.888 183.957 C 190.390 183.194,187.794 181.540,187.177 180.955 C 185.979 179.821,178.888 177.492,178.330 178.051 C 178.194 178.186,177.947 178.079,177.782 177.811 C 177.102 176.711,168.002 175.977,163.477 176.658 " stroke="none" fill="#7cca94" fill-rule="evenodd"/><path id="path4" d="M196.992 83.104 C 198.882 83.175,201.871 83.175,203.632 83.103 C 205.394 83.031,203.848 82.972,200.195 82.972 C 196.543 82.973,195.101 83.032,196.992 83.104 M189.160 83.472 C 189.536 83.571,190.151 83.571,190.527 83.472 C 190.903 83.374,190.596 83.294,189.844 83.294 C 189.092 83.294,188.784 83.374,189.160 83.472 M209.473 83.472 C 209.849 83.571,210.464 83.571,210.840 83.472 C 211.216 83.374,210.908 83.294,210.156 83.294 C 209.404 83.294,209.097 83.374,209.473 83.472 M198.547 100.288 C 199.574 100.368,201.156 100.367,202.063 100.285 C 202.969 100.204,202.129 100.137,200.195 100.139 C 198.262 100.140,197.520 100.207,198.547 100.288 M191.113 100.660 C 191.489 100.758,192.104 100.758,192.480 100.660 C 192.856 100.562,192.549 100.481,191.797 100.481 C 191.045 100.481,190.737 100.562,191.113 100.660 M207.520 100.660 C 207.896 100.758,208.511 100.758,208.887 100.660 C 209.263 100.562,208.955 100.481,208.203 100.481 C 207.451 100.481,207.144 100.562,207.520 100.660 M279.492 114.453 C 280.331 115.313,281.106 116.016,281.213 116.016 C 281.321 116.016,280.722 115.313,279.883 114.453 C 279.044 113.594,278.269 112.891,278.162 112.891 C 278.054 112.891,278.653 113.594,279.492 114.453 M116.790 117.871 L 112.695 122.070 116.895 117.976 C 119.204 115.724,121.094 113.834,121.094 113.777 C 121.094 113.494,120.593 113.971,116.790 117.871 M285.938 120.898 C 287.104 122.080,288.147 123.047,288.255 123.047 C 288.362 123.047,287.495 122.080,286.328 120.898 C 285.161 119.717,284.118 118.750,284.011 118.750 C 283.904 118.750,284.771 119.717,285.938 120.898 M132.401 126.855 L 131.055 128.320 132.520 126.974 C 133.325 126.234,133.984 125.575,133.984 125.509 C 133.984 125.211,133.654 125.492,132.401 126.855 M126.541 132.715 L 125.195 134.180 126.660 132.834 C 127.466 132.093,128.125 131.434,128.125 131.369 C 128.125 131.070,127.794 131.351,126.541 132.715 M170.493 133.301 L 168.555 135.352 170.605 133.413 C 171.733 132.347,172.656 131.424,172.656 131.362 C 172.656 131.071,172.294 131.395,170.493 133.301 M229.102 133.203 C 230.160 134.277,231.113 135.156,231.221 135.156 C 231.328 135.156,230.550 134.277,229.492 133.203 C 228.434 132.129,227.481 131.250,227.373 131.250 C 227.266 131.250,228.043 132.129,229.102 133.203 M272.656 132.153 C 272.656 132.221,273.228 132.792,273.926 133.423 L 275.195 134.570 274.048 133.301 C 272.979 132.117,272.656 131.852,272.656 132.153 M158.736 162.305 C 158.737 164.453,158.803 165.282,158.882 164.147 C 158.961 163.012,158.961 161.254,158.880 160.241 C 158.800 159.228,158.735 160.156,158.736 162.305 M241.141 162.109 C 241.141 163.506,241.212 164.077,241.298 163.379 C 241.385 162.681,241.385 161.538,241.298 160.840 C 241.212 160.142,241.141 160.713,241.141 162.109 M166.906 167.866 C 167.933 167.946,169.515 167.945,170.422 167.864 C 171.329 167.782,170.488 167.716,168.555 167.717 C 166.621 167.718,165.879 167.785,166.906 167.866 M163.477 175.839 C 128.991 180.243,115.301 222.736,140.660 246.659 C 154.641 259.847,176.888 261.449,192.292 250.376 L 194.544 248.757 193.042 246.937 C 189.849 243.067,186.988 238.138,185.524 233.984 C 185.032 232.588,184.587 231.386,184.534 231.314 C 184.481 231.242,183.510 231.916,182.376 232.812 C 162.339 248.650,136.639 223.347,152.423 203.320 C 164.840 187.565,189.488 196.790,189.899 217.348 C 189.943 219.547,190.004 219.803,190.192 218.592 C 190.352 217.568,190.687 216.967,191.211 216.764 C 191.652 216.593,191.751 216.449,191.439 216.434 C 191.134 216.419,191.001 216.291,191.142 216.149 C 191.284 216.008,191.223 215.679,191.007 215.419 C 190.791 215.159,190.682 214.528,190.766 214.016 C 190.849 213.504,190.788 212.910,190.630 212.695 C 190.472 212.480,189.949 210.990,189.469 209.382 C 188.988 207.775,188.122 205.842,187.545 205.086 C 186.967 204.330,186.171 203.083,185.775 202.316 C 185.378 201.549,184.506 200.564,183.836 200.128 C 183.166 199.691,181.499 198.605,180.131 197.714 C 178.764 196.823,177.333 196.094,176.951 196.094 C 176.570 196.094,175.508 195.758,174.591 195.348 C 173.675 194.938,172.707 194.686,172.440 194.789 C 172.173 194.891,171.858 194.820,171.742 194.631 C 171.283 193.889,163.719 194.573,162.299 195.485 C 161.866 195.764,160.899 196.113,160.151 196.262 C 157.859 196.718,156.489 197.380,155.479 198.520 C 154.948 199.119,154.364 199.609,154.182 199.609 C 153.545 199.609,151.968 201.828,151.059 204.004 C 150.812 204.595,150.465 205.078,150.289 205.078 C 150.112 205.078,149.333 206.440,148.557 208.105 C 147.781 209.771,147.038 211.221,146.905 211.328 C 144.783 213.041,147.048 223.645,150.685 229.023 C 151.383 230.055,151.953 231.203,151.953 231.576 C 151.953 231.949,152.524 232.586,153.223 232.993 C 153.921 233.401,154.776 234.054,155.124 234.445 C 155.471 234.836,155.930 235.156,156.143 235.156 C 156.356 235.156,157.862 235.771,159.490 236.523 C 161.117 237.275,162.812 237.891,163.256 237.891 C 163.699 237.891,164.019 238.110,163.965 238.379 C 163.892 238.744,165.078 238.895,168.652 238.977 C 171.362 239.039,173.438 238.932,173.438 238.729 C 173.438 238.533,173.833 238.244,174.316 238.086 C 174.800 237.929,175.283 237.762,175.391 237.716 C 175.498 237.670,176.435 237.250,177.474 236.784 C 178.512 236.319,179.432 235.938,179.519 235.938 C 179.605 235.938,180.570 235.387,181.662 234.715 C 183.104 233.828,183.767 233.610,184.078 233.921 C 184.600 234.444,185.533 237.044,185.541 238.001 C 185.544 238.383,185.824 238.803,186.163 238.933 C 186.502 239.063,187.226 240.112,187.771 241.264 C 188.317 242.417,188.901 243.359,189.070 243.359 C 189.990 243.359,192.247 248.428,191.735 249.344 C 191.288 250.142,188.895 251.594,187.905 251.669 C 187.467 251.702,187.109 251.867,187.109 252.036 C 187.109 252.205,186.945 252.344,186.744 252.344 C 186.543 252.344,185.884 252.532,185.279 252.762 C 184.675 252.992,184.092 253.180,183.984 253.180 C 183.877 253.181,183.525 253.390,183.203 253.645 C 181.757 254.792,179.951 255.510,178.043 255.697 C 176.906 255.808,175.273 256.062,174.414 256.261 C 172.485 256.706,172.170 256.720,172.401 256.348 C 172.593 256.038,170.737 256.069,167.188 256.437 C 165.952 256.565,163.545 256.404,161.523 256.057 C 159.590 255.726,157.691 255.448,157.303 255.439 C 156.916 255.430,156.501 255.170,156.383 254.860 C 156.264 254.550,155.823 254.297,155.404 254.297 C 154.985 254.297,154.750 254.121,154.883 253.906 C 155.016 253.691,154.806 253.516,154.418 253.515 C 152.238 253.515,144.732 249.686,144.312 248.361 C 144.196 247.995,143.747 247.584,143.316 247.447 C 142.884 247.310,142.356 246.814,142.142 246.346 C 141.929 245.877,141.104 245.068,140.311 244.549 C 138.255 243.204,136.520 241.178,135.127 238.500 C 134.235 236.784,134.107 236.324,134.636 236.735 C 135.323 237.269,135.324 237.259,134.668 236.486 C 134.292 236.043,133.984 235.475,133.984 235.223 C 133.984 234.972,133.773 234.810,133.514 234.863 C 133.255 234.917,133.027 234.785,133.006 234.570 C 132.985 234.355,132.252 232.773,131.377 231.055 C 129.302 226.980,129.056 225.843,128.634 218.359 C 128.429 214.725,128.934 208.531,129.714 205.118 C 130.165 203.142,133.275 198.159,133.585 198.916 C 133.697 199.190,134.141 199.471,134.570 199.541 C 135.324 199.664,135.322 199.638,134.504 198.802 C 133.921 198.207,133.758 197.740,133.981 197.308 C 134.160 196.962,134.609 195.819,134.981 194.767 C 135.686 192.766,142.052 185.938,143.211 185.938 C 143.507 185.938,143.750 185.762,143.750 185.547 C 143.750 185.332,144.058 185.149,144.434 185.141 C 144.810 185.133,145.469 184.570,145.898 183.890 C 146.821 182.429,152.027 179.639,153.994 179.550 C 154.698 179.518,155.506 179.272,155.790 179.004 C 156.074 178.735,156.652 178.516,157.075 178.516 C 157.498 178.516,158.496 178.189,159.293 177.789 C 162.934 175.964,176.655 175.988,177.788 177.822 C 177.950 178.083,178.194 178.186,178.330 178.051 C 178.888 177.492,185.979 179.821,187.177 180.955 C 187.794 181.540,190.390 183.194,191.888 183.957 C 192.475 184.255,193.303 184.823,193.727 185.219 C 194.151 185.614,194.678 185.938,194.897 185.938 C 195.115 185.938,195.606 186.421,195.987 187.012 C 196.368 187.603,197.798 189.229,199.165 190.625 C 200.758 192.253,202.077 194.075,202.839 195.703 C 203.493 197.100,204.252 198.507,204.527 198.830 C 204.801 199.153,205.091 199.906,205.171 200.502 C 205.251 201.099,205.611 201.932,205.972 202.353 C 207.677 204.345,209.104 215.595,207.759 216.447 C 207.386 216.684,207.551 216.787,208.313 216.791 C 209.071 216.795,209.508 217.063,209.757 217.676 C 210.366 219.178,209.781 212.245,208.947 208.085 C 204.803 187.400,184.681 173.131,163.477 175.839 M245.976 178.650 C 245.830 179.030,246.045 179.123,246.751 178.988 C 247.469 178.851,247.589 178.713,247.204 178.469 C 246.472 178.005,246.208 178.044,245.976 178.650 M258.008 185.547 C 258.847 186.406,259.621 187.109,259.729 187.109 C 259.836 187.109,259.238 186.406,258.398 185.547 C 257.559 184.688,256.785 183.984,256.677 183.984 C 256.570 183.984,257.169 184.688,258.008 185.547 M83.310 190.234 C 83.310 191.201,83.386 191.597,83.479 191.113 C 83.572 190.630,83.572 189.839,83.479 189.355 C 83.386 188.872,83.310 189.268,83.310 190.234 M316.513 190.234 C 316.513 191.201,316.589 191.597,316.682 191.113 C 316.775 190.630,316.775 189.839,316.682 189.355 C 316.589 188.872,316.513 189.268,316.513 190.234 M100.489 191.992 C 100.493 192.852,100.573 193.157,100.667 192.671 C 100.760 192.185,100.757 191.482,100.659 191.109 C 100.561 190.735,100.485 191.133,100.489 191.992 M299.309 191.797 C 299.309 192.549,299.390 192.856,299.488 192.480 C 299.586 192.104,299.586 191.489,299.488 191.113 C 299.390 190.737,299.309 191.045,299.309 191.797 M316.956 200.000 C 316.956 203.545,317.015 204.995,317.087 203.223 C 317.160 201.450,317.160 198.550,317.087 196.777 C 317.015 195.005,316.956 196.455,316.956 200.000 M82.971 200.195 C 82.971 203.633,83.031 204.987,83.103 203.204 C 83.176 201.421,83.176 198.609,83.103 196.954 C 83.029 195.299,82.970 196.758,82.971 200.195 M236.366 195.072 C 235.918 195.611,236.927 196.406,237.426 195.908 C 237.538 195.795,237.406 195.703,237.133 195.703 C 236.851 195.703,236.733 195.449,236.860 195.117 C 237.141 194.385,236.950 194.368,236.366 195.072 M100.134 199.805 C 100.135 201.523,100.204 202.178,100.287 201.259 C 100.369 200.340,100.368 198.934,100.284 198.134 C 100.200 197.334,100.132 198.086,100.134 199.805 M299.748 200.195 C 299.747 202.129,299.813 202.969,299.895 202.063 C 299.977 201.156,299.978 199.574,299.897 198.547 C 299.816 197.520,299.749 198.262,299.748 200.195 M299.309 208.203 C 299.309 208.955,299.390 209.263,299.488 208.887 C 299.586 208.511,299.586 207.896,299.488 207.520 C 299.390 207.144,299.309 207.451,299.309 208.203 M83.294 210.156 C 83.294 210.908,83.374 211.216,83.472 210.840 C 83.571 210.464,83.571 209.849,83.472 209.473 C 83.374 209.097,83.294 209.404,83.294 210.156 M316.497 210.547 C 316.497 211.299,316.577 211.606,316.676 211.230 C 316.774 210.854,316.774 210.239,316.676 209.863 C 316.577 209.487,316.497 209.795,316.497 210.547 M272.406 216.797 C 272.406 218.838,272.472 219.673,272.553 218.652 C 272.633 217.632,272.633 215.962,272.553 214.941 C 272.472 213.921,272.406 214.756,272.406 216.797 M215.999 231.348 C 216.957 232.368,217.792 233.203,217.855 233.203 C 218.148 233.203,217.838 232.852,216.113 231.234 L 214.258 229.492 215.999 231.348 M230.566 238.160 C 230.942 238.258,231.558 238.258,231.934 238.160 C 232.310 238.062,232.002 237.981,231.250 237.981 C 230.498 237.981,230.190 238.062,230.566 238.160 M260.341 245.410 L 257.617 248.242 260.449 245.518 C 263.080 242.988,263.460 242.578,263.173 242.578 C 263.114 242.578,261.839 243.853,260.341 245.410 M201.953 245.508 C 203.337 246.904,204.558 248.047,204.665 248.047 C 204.772 248.047,203.728 246.904,202.344 245.508 C 200.960 244.111,199.739 242.969,199.632 242.969 C 199.525 242.969,200.569 244.111,201.953 245.508 M229.199 257.710 C 230.327 257.789,232.173 257.789,233.301 257.710 C 234.429 257.631,233.506 257.566,231.250 257.566 C 228.994 257.566,228.071 257.631,229.199 257.710 M126.758 267.578 C 127.597 268.438,128.371 269.141,128.479 269.141 C 128.586 269.141,127.988 268.438,127.148 267.578 C 126.309 266.719,125.535 266.016,125.427 266.016 C 125.320 266.016,125.919 266.719,126.758 267.578 M132.617 273.438 C 133.456 274.297,134.231 275.000,134.338 275.000 C 134.446 275.000,133.847 274.297,133.008 273.438 C 132.169 272.578,131.394 271.875,131.287 271.875 C 131.179 271.875,131.778 272.578,132.617 273.438 M110.938 275.903 C 110.938 275.971,111.509 276.542,112.207 277.173 L 113.477 278.320 112.329 277.051 C 111.260 275.867,110.938 275.602,110.938 275.903 M114.453 279.795 C 114.453 279.854,115.815 281.216,117.480 282.822 L 120.508 285.742 117.588 282.715 C 114.876 279.903,114.453 279.509,114.453 279.795 M194.629 299.889 C 195.220 299.979,196.187 299.979,196.777 299.889 C 197.368 299.800,196.885 299.726,195.703 299.726 C 194.521 299.726,194.038 299.800,194.629 299.889 M203.425 299.892 C 204.127 299.979,205.182 299.978,205.769 299.888 C 206.356 299.799,205.781 299.728,204.492 299.730 C 203.203 299.733,202.723 299.806,203.425 299.892 M293.555 308.203 C 297.202 311.855,300.275 314.844,300.382 314.844 C 300.489 314.844,297.593 311.855,293.945 308.203 C 290.298 304.551,287.225 301.563,287.118 301.563 C 287.011 301.563,289.907 304.551,293.555 308.203 M189.160 316.676 C 189.536 316.774,190.151 316.774,190.527 316.676 C 190.903 316.577,190.596 316.497,189.844 316.497 C 189.092 316.497,188.784 316.577,189.160 316.676 M209.473 316.676 C 209.849 316.774,210.464 316.774,210.840 316.676 C 211.216 316.577,210.908 316.497,210.156 316.497 C 209.404 316.497,209.097 316.577,209.473 316.676 M196.777 317.087 C 198.550 317.160,201.450 317.160,203.223 317.087 C 204.995 317.015,203.545 316.956,200.000 316.956 C 196.455 316.956,195.005 317.015,196.777 317.087 " stroke="none" fill="#8bc597" fill-rule="evenodd"/></g></svg>