<?xml version="1.0" encoding="UTF-8"?>
<svg xmlns:xlink="http://www.w3.org/1999/xlink" xmlns="http://www.w3.org/2000/svg" xml:space="preserve" viewBox="107.712 179.0943396226415 1371.744 316.9811320754717" width="1371.744" y="0px" x="0px" id="Layer_1" version="1.1" style="max-height: 500px; background: transparent;" height="316.9811320754717">

<path d="M370.935852,344.979858 &#10;&#9;C366.448761,368.275726 355.490326,388.325989 339.883118,406.105042 &#10;&#9;C342.813751,410.217651 345.644348,413.334900 351.225189,413.179626 &#10;&#9;C353.865479,413.106201 357.194275,414.585846 359.141174,416.468353 &#10;&#9;C374.226044,431.054810 389.165466,445.797241 403.901184,460.736694 &#10;&#9;C410.523712,467.450836 410.179901,477.918121 403.756775,484.166229 &#10;&#9;C397.081451,490.659637 387.773865,490.165924 380.654907,482.957550 &#10;&#9;C366.260712,468.382568 351.799255,453.872955 337.534241,439.172668 &#10;&#9;C335.678619,437.260468 333.778076,434.411194 333.706848,431.943756 &#10;&#9;C333.536926,426.054932 330.188751,422.583008 325.979431,418.988861 &#10;&#9;C313.425690,428.658966 299.964111,436.841797 284.630615,441.368408 &#10;&#9;C239.960678,454.555328 199.832153,445.778748 164.102600,416.124481 &#10;&#9;C113.929382,374.482483 104.599533,296.348175 143.089447,241.905975 &#10;&#9;C195.456131,167.835724 296.204498,169.407181 347.524689,238.260712 &#10;&#9;C358.107666,252.459290 365.603210,268.084442 369.719604,285.821777 &#10;&#9;C369.639954,287.273468 369.809448,288.133087 369.978973,288.992676 &#10;&#9;C369.978973,288.992676 370.027008,289.427124 370.025085,290.103821 &#10;&#9;C370.349152,305.498535 370.692413,320.216248 370.988007,334.934906 &#10;&#9;C371.055237,338.281525 370.957611,341.631439 370.935852,344.979858 &#10;M284.640228,421.224396 &#10;&#9;C299.442505,415.771729 312.266876,407.112793 323.134125,395.883270 &#10;&#9;C379.065887,338.086945 358.203369,241.734695 283.370300,212.543213 &#10;&#9;C255.176254,201.545029 226.976227,203.072632 200.139877,216.770645 &#10;&#9;C145.300980,244.761902 122.854660,311.377747 149.513748,366.876648 &#10;&#9;C172.974533,415.717346 230.527298,441.857605 284.640228,421.224396 &#10;z" stroke="none" opacity="1.000000" fill="#43453B"/>
<path d="M1381.861084,323.002625 &#10;&#9;C1382.023804,322.605286 1382.186646,322.207947 1382.573486,321.200500 &#10;&#9;C1387.832520,306.225037 1397.841309,297.316345 1412.791260,294.854919 &#10;&#9;C1418.689819,293.883759 1424.921509,294.934723 1431.001465,295.064880 &#10;&#9;C1436.252441,298.018494 1441.503296,300.972137 1446.832764,303.969940 &#10;&#9;C1446.832764,301.573944 1446.832764,298.659637 1446.832764,295.371521 &#10;&#9;C1453.087891,295.371521 1458.997803,295.371521 1465.209473,295.371521 &#10;&#9;C1465.322876,296.339111 1465.566650,297.451508 1465.567139,298.564026 &#10;&#9;C1465.577759,320.702911 1465.632324,342.842285 1465.490967,364.980347 &#10;&#9;C1465.460327,369.779938 1465.135132,374.659607 1464.208984,379.357147 &#10;&#9;C1460.542847,397.950653 1450.257446,407.783813 1431.441162,410.393799 &#10;&#9;C1417.196533,412.369629 1403.603271,409.900818 1391.024780,402.700165 &#10;&#9;C1389.182251,401.645447 1387.518677,400.278351 1385.507446,398.870361 &#10;&#9;C1386.432129,396.967255 1387.210327,395.365906 1388.303467,393.245453 &#10;&#9;C1388.821289,392.177856 1389.024048,391.629425 1389.226807,391.080994 &#10;&#9;C1389.549072,390.618286 1389.871216,390.155548 1390.492798,389.183838 &#10;&#9;C1391.687012,387.136505 1392.582031,385.598175 1393.099121,384.709259 &#10;&#9;C1399.363892,387.441925 1405.017334,390.816376 1411.133057,392.367249 &#10;&#9;C1420.829712,394.826263 1430.809692,395.903564 1439.367188,387.987244 &#10;&#9;C1439.890381,387.752289 1440.043213,387.492004 1440.373535,386.995300 &#10;&#9;C1444.572266,382.266846 1445.927246,376.860718 1445.998291,370.672974 &#10;&#9;C1446.040039,369.895294 1445.989258,369.446381 1446.026367,368.632385 &#10;&#9;C1446.114258,367.366241 1446.114258,366.465210 1446.114258,364.489990 &#10;&#9;C1444.945557,366.158264 1444.383301,366.960815 1443.782471,367.784882 &#10;&#9;C1443.743774,367.806427 1443.715454,367.893341 1443.293579,367.981934 &#10;&#9;C1437.432007,372.849731 1430.779053,374.605103 1423.445679,375.625732 &#10;&#9;C1421.073730,375.588440 1419.116577,375.623383 1416.810059,375.489624 &#10;&#9;C1405.593750,374.385620 1396.642700,369.672333 1389.397705,361.595337 &#10;&#9;C1388.876465,360.832642 1388.355347,360.069916 1387.460449,358.808411 &#10;&#9;C1386.411865,357.350800 1385.737305,356.391907 1385.062622,355.433014 &#10;&#9;C1385.062622,355.433014 1385.028809,355.118927 1384.916016,354.670288 &#10;&#9;C1383.705566,351.078705 1382.607910,347.935730 1381.510010,344.792725 &#10;&#9;C1381.323730,343.455200 1381.137329,342.117645 1380.905273,339.926392 &#10;&#9;C1381.193481,333.715973 1381.527344,328.359314 1381.861084,323.002625 &#10;M1405.839233,318.393158 &#10;&#9;C1398.457153,328.186920 1398.057129,341.136139 1404.868164,349.837341 &#10;&#9;C1410.980225,357.645874 1422.722412,360.492920 1432.472046,356.378662 &#10;&#9;C1441.762695,352.458038 1446.084717,345.219696 1446.273804,335.261902 &#10;&#9;C1446.466187,325.131287 1442.436523,317.251709 1433.078613,313.233398 &#10;&#9;C1423.461304,309.103912 1414.226685,310.435791 1405.839233,318.393158 &#10;z" stroke="none" opacity="1.000000" fill="#43443B"/>
<path d="M969.993958,288.990814 &#10;&#9;C969.994568,280.220978 969.994568,271.949310 969.994568,263.376587 &#10;&#9;C976.762207,263.376587 982.856445,263.376587 989.415710,263.376587 &#10;&#9;C989.415710,301.910522 989.415710,340.423920 989.415710,379.369568 &#10;&#9;C983.608826,379.369568 977.726440,379.369568 971.348145,379.369568 &#10;&#9;C971.160583,376.580688 970.975647,373.829407 970.779907,370.918884 &#10;&#9;C970.331543,370.969543 969.763916,370.857361 969.482849,371.090576 &#10;&#9;C950.710144,386.666595 925.015503,382.949524 911.535828,362.503876 &#10;&#9;C901.365295,347.077637 901.334106,317.365845 919.903809,302.388885 &#10;&#9;C933.251282,291.623749 956.582825,290.520294 968.100098,302.534424 &#10;&#9;C968.409790,302.857483 968.899841,303.007690 969.993347,303.629517 &#10;&#9;C969.993347,298.611572 969.993347,294.050262 969.993958,288.990814 &#10;M965.707092,320.917145 &#10;&#9;C960.771851,313.578735 953.710388,310.449158 945.112000,311.302612 &#10;&#9;C935.805542,312.226349 929.009399,317.276550 926.472046,326.285706 &#10;&#9;C924.992981,331.537445 924.691772,337.403961 925.195740,342.870819 &#10;&#9;C926.171814,353.461060 934.512756,361.587402 944.490845,362.861877 &#10;&#9;C954.682373,364.163605 964.220520,358.840118 967.958313,348.913544 &#10;&#9;C971.435425,339.679260 971.414429,330.341400 965.707092,320.917145 &#10;z" stroke="none" opacity="1.000000" fill="#85C596"/>
<path d="M616.112793,378.009155 &#10;&#9;C616.112793,350.554535 616.112793,323.099915 616.112793,295.336731 &#10;&#9;C622.322205,295.336731 628.208435,295.336731 634.378967,295.336731 &#10;&#9;C634.537476,298.253265 634.687012,301.005127 634.890564,304.750214 &#10;&#9;C642.701050,296.976227 651.492981,293.480804 661.818176,293.977448 &#10;&#9;C672.145142,294.474182 680.410583,298.632294 686.521057,307.603668 &#10;&#9;C698.285583,294.504333 712.623657,290.671356 729.022522,296.405579 &#10;&#9;C740.027832,300.253784 745.185852,309.145996 746.707031,320.944977 &#10;&#9;C746.256226,338.228943 746.110657,354.801239 746.091797,371.373718 &#10;&#9;C746.090759,372.242310 747.166504,373.112183 747.740967,373.981445 &#10;&#9;C747.805725,374.744141 747.870422,375.506866 747.450195,376.716736 &#10;&#9;C745.343872,377.440491 743.728516,377.911377 742.100281,377.960754 &#10;&#9;C733.998047,378.206543 733.995361,378.167480 733.995972,370.272308 &#10;&#9;C733.997009,357.303345 734.016174,344.334381 733.981812,331.365509 &#10;&#9;C733.977600,329.782562 733.691101,328.200348 733.535400,326.617767 &#10;&#9;C732.935059,326.662811 732.334656,326.707886 731.734314,326.752930 &#10;&#9;C731.734314,343.593262 731.734314,360.433624 731.734314,377.273956 &#10;&#9;C731.156189,377.265564 730.578064,377.257172 729.999939,377.248779 &#10;&#9;C729.999939,375.535095 729.999634,373.821411 729.999939,372.107727 &#10;&#9;C730.002319,358.307434 730.144043,344.504974 729.929688,330.708038 &#10;&#9;C729.857178,326.040741 729.872437,321.005646 725.089966,317.976257 &#10;&#9;C714.841736,306.711212 699.812622,310.210205 692.694580,325.691437 &#10;&#9;C688.560059,325.996918 684.994324,325.996918 680.385132,325.996918 &#10;&#9;C688.175476,334.310730 689.860474,342.070862 685.470947,346.800873 &#10;&#9;C684.519348,345.253693 683.614075,343.781738 682.391296,341.793640 &#10;&#9;C680.212280,343.229218 678.257385,344.517212 676.312012,345.798920 &#10;&#9;C672.767273,340.569275 673.051575,328.519714 676.798706,324.374023 &#10;&#9;C675.127563,320.145874 673.098145,316.317139 667.711792,316.230713 &#10;&#9;C667.711792,316.230713 667.839417,316.156311 667.827820,315.864319 &#10;&#9;C666.910461,315.033417 666.004700,314.494476 665.098938,313.955566 &#10;&#9;C665.098938,313.955566 665.034851,313.991760 664.937866,313.594238 &#10;&#9;C663.734192,312.842072 662.627441,312.487457 661.520752,312.132874 &#10;&#9;C661.172424,312.106537 660.824097,312.080200 660.125366,311.571289 &#10;&#9;C655.539856,309.330475 651.496887,308.991028 647.999695,312.682831 &#10;&#9;C640.230225,316.388153 636.765625,322.939270 635.474243,331.321625 &#10;&#9;C634.911621,331.294891 634.680237,331.076080 634.422058,330.895508 &#10;&#9;C634.393005,330.875244 634.105957,331.088104 634.117859,331.164948 &#10;&#9;C634.470947,333.434662 634.846802,335.700836 635.218994,337.967590 &#10;&#9;C635.289673,342.019684 635.360352,346.071777 635.125244,350.639801 &#10;&#9;C634.939697,351.451355 635.060059,351.747009 635.180420,352.042664 &#10;&#9;C635.268311,360.382599 635.356140,368.722534 634.860229,377.514526 &#10;&#9;C629.782715,377.641632 625.289062,377.316711 620.795349,376.991791 &#10;&#9;C620.869873,376.734680 620.944397,376.477600 621.018921,376.220490 &#10;&#9;C619.383545,376.816711 617.748169,377.412933 616.112793,378.009155 &#10;z" stroke="none" opacity="1.000000" fill="#42443A"/>
<path d="M1088.947021,336.026184 &#10;&#9;C1088.938110,343.795319 1088.938232,343.746277 1081.523193,343.732849 &#10;&#9;C1064.716187,343.702423 1047.909180,343.718933 1031.102173,343.737488 &#10;&#9;C1029.635864,343.739105 1028.169678,343.896454 1026.324097,344.003418 &#10;&#9;C1027.583496,352.287109 1032.020996,357.775909 1039.256836,360.673553 &#10;&#9;C1051.573120,365.605713 1062.753418,363.374634 1072.813110,353.823700 &#10;&#9;C1076.007935,357.286072 1079.477417,360.416199 1082.000610,364.180695 &#10;&#9;C1082.718750,365.252289 1081.259888,368.780029 1079.817017,370.136688 &#10;&#9;C1072.055786,377.434631 1062.421265,380.554169 1051.979736,380.682098 &#10;&#9;C1033.375122,380.910065 1018.122070,373.704102 1009.500854,354.921417 &#10;&#9;C1001.701416,337.928955 1007.223938,314.736084 1021.855408,302.619781 &#10;&#9;C1034.983276,291.748657 1057.692139,291.001434 1071.888184,301.051544 &#10;&#9;C1083.773193,309.465576 1088.137817,321.649139 1088.947021,336.026184 &#10;M1066.892334,320.736084 &#10;&#9;C1061.038208,311.447113 1051.139893,307.917694 1040.603027,311.362183 &#10;&#9;C1031.875854,314.215088 1026.014771,321.835999 1026.661255,329.607239 &#10;&#9;C1040.991333,329.607239 1055.327515,329.607239 1070.702271,329.607239 &#10;&#9;C1069.349731,326.420135 1068.284790,323.911072 1066.892334,320.736084 &#10;z" stroke="none" opacity="1.000000" fill="#84C496"/>
<path d="M1283.969604,377.908569 &#10;&#9;C1276.421387,378.706238 1268.736450,380.824158 1261.350098,380.059143 &#10;&#9;C1237.174194,377.555298 1222.119263,358.857147 1223.604736,334.590363 &#10;&#9;C1225.597046,302.042480 1256.814453,284.577118 1287.831299,299.281494 &#10;&#9;C1315.351074,313.779510 1316.836060,359.476868 1287.609619,375.535126 &#10;&#9;C1286.343750,376.230682 1285.180664,377.113159 1283.969604,377.908569 &#10;M1278.225098,359.932098 &#10;&#9;C1287.056641,354.006378 1289.692871,345.294373 1289.397949,335.226685 &#10;&#9;C1289.022949,322.422028 1280.670898,312.571655 1269.000854,311.245361 &#10;&#9;C1256.864502,309.866089 1246.830688,316.908752 1243.829590,329.793518 &#10;&#9;C1241.299683,340.655212 1242.991455,350.959015 1252.235840,358.309418 &#10;&#9;C1259.968628,364.457855 1268.708252,364.778656 1278.225098,359.932098 &#10;z" stroke="none" opacity="1.000000" fill="#424339"/>
<path d="M594.575745,304.064331 &#10;&#9;C594.572815,329.360199 594.572815,354.164581 594.572815,379.269623 &#10;&#9;C588.408997,379.269623 582.511597,379.269623 576.159058,379.269623 &#10;&#9;C576.159058,376.090576 576.159058,373.202698 576.159058,369.195435 &#10;&#9;C568.345398,378.066437 559.002258,380.956879 548.708923,380.510681 &#10;&#9;C529.297546,379.669220 517.587219,367.922607 516.170532,348.241638 &#10;&#9;C515.824280,343.430359 515.979614,338.580231 515.971130,333.747864 &#10;&#9;C515.948914,321.094147 515.963623,308.440399 515.963623,295.398315 &#10;&#9;C522.233948,295.398315 528.298035,295.398315 534.737732,295.398315 &#10;&#9;C534.818787,296.761108 534.972900,298.197754 534.979126,299.635101 &#10;&#9;C535.039795,313.633942 534.807922,327.640228 535.190186,341.629883 &#10;&#9;C535.614502,357.156647 544.300964,364.479675 558.611206,362.021057 &#10;&#9;C568.034973,360.401978 574.630371,352.073181 574.970947,340.348175 &#10;&#9;C575.348206,327.358734 575.159485,314.352783 575.214355,301.354034 &#10;&#9;C575.222656,299.399170 575.215515,297.444214 575.215515,295.234650 &#10;&#9;C581.809937,295.234650 587.911438,295.234650 594.578674,295.234650 &#10;&#9;C594.578674,298.010254 594.578674,300.791534 594.575745,304.064331 &#10;z" stroke="none" opacity="1.000000" fill="#44453C"/>
<path d="M868.903076,353.000000 &#10;&#9;C868.680176,344.192657 868.932129,335.837860 868.107300,327.590790 &#10;&#9;C867.210205,318.621521 861.987671,313.314178 854.377136,312.085205 &#10;&#9;C844.911926,310.556793 836.044739,314.231079 832.491394,322.222473 &#10;&#9;C830.523621,326.648132 829.475159,331.785461 829.303345,336.647644 &#10;&#9;C828.862549,349.122498 829.143066,361.622833 829.135437,374.112976 &#10;&#9;C829.134460,375.746490 829.135193,377.380035 829.135193,379.392090 &#10;&#9;C822.603210,379.392090 816.550537,379.392090 810.169067,379.392090 &#10;&#9;C810.169067,351.361450 810.169067,323.623016 810.169067,295.429260 &#10;&#9;C816.102844,295.429260 821.994019,295.429260 828.416199,295.429260 &#10;&#9;C828.631165,297.958282 828.859802,300.648712 829.142761,303.977417 &#10;&#9;C831.084167,302.588989 832.498047,301.525238 833.963562,300.538116 &#10;&#9;C845.350159,292.868652 857.556152,291.606140 870.016418,297.060883 &#10;&#9;C882.549927,302.547699 887.748108,313.312073 888.023804,326.364227 &#10;&#9;C888.392639,343.825653 888.115051,361.300751 888.115051,379.102539 &#10;&#9;C881.791077,379.102539 875.746338,379.102539 868.903442,379.102539 &#10;&#9;C868.903442,370.348480 868.903442,361.924225 868.903076,353.000000 &#10;z" stroke="none" opacity="1.000000" fill="#83C395"/>
<path d="M428.979492,379.187561 &#10;&#9;C427.930237,379.263336 426.880981,379.339111 425.186859,378.979431 &#10;&#9;C421.995300,378.358551 419.448608,378.173157 416.901917,377.987762 &#10;&#9;C416.840637,351.300934 416.779388,324.614136 417.288696,297.469910 &#10;&#9;C418.856384,297.009521 419.854584,296.974884 420.850494,297.008911 &#10;&#9;C425.426117,297.165253 431.469147,294.975647 431.496979,303.394714 &#10;&#9;C431.789398,301.626831 432.081818,299.858917 432.267914,298.733734 &#10;&#9;C433.008881,300.556213 433.920563,302.798615 434.832275,305.041016 &#10;&#9;C444.412476,296.086792 455.666992,292.432404 468.668671,294.433838 &#10;&#9;C483.630096,296.737000 493.613800,307.055115 494.591522,324.108337 &#10;&#9;C495.636719,342.337219 494.827087,360.672485 494.827087,379.194366 &#10;&#9;C488.694458,379.194366 482.587952,379.194366 475.902588,379.194366 &#10;&#9;C475.902588,370.286835 475.985535,361.525085 475.878418,352.765686 &#10;&#9;C475.778778,344.620911 476.042114,336.414337 475.125732,328.350922 &#10;&#9;C473.879791,317.387054 468.515411,312.315643 459.227844,311.747864 &#10;&#9;C448.066620,311.065521 440.048950,316.364227 437.131134,326.405792 &#10;&#9;C436.668091,327.999329 436.411896,329.652954 435.564087,331.765015 &#10;&#9;C434.711212,334.115326 434.058014,335.977325 434.045135,337.843781 &#10;&#9;C433.955170,350.910309 433.997528,363.977783 433.997528,377.824158 &#10;&#9;C431.002991,375.743439 428.889313,375.168396 428.979492,379.187561 &#10;z" stroke="none" opacity="1.000000" fill="#43443B"/>
<path d="M1112.702148,295.016907 &#10;&#9;C1116.538208,294.470795 1118.637451,295.910706 1120.527100,298.769958 &#10;&#9;C1125.464111,306.240753 1130.755127,313.477600 1136.350708,321.441895 &#10;&#9;C1138.316284,319.020935 1139.993652,317.079315 1141.532227,315.033203 &#10;&#9;C1144.431519,311.177399 1147.843872,307.558167 1149.971802,303.304626 &#10;&#9;C1153.657593,295.937286 1159.240112,293.786652 1166.943726,294.895966 &#10;&#9;C1170.018066,295.338654 1173.209351,294.968719 1177.497803,294.968719 &#10;&#9;C1175.933228,297.337524 1174.956177,298.945801 1173.854858,300.463745 &#10;&#9;C1166.137695,311.099457 1158.456055,321.761993 1150.616455,332.306976 &#10;&#9;C1148.695679,334.890656 1148.266724,336.672821 1150.451050,339.609650 &#10;&#9;C1160.052124,352.517914 1169.298340,365.690033 1179.364258,379.730499 &#10;&#9;C1171.449463,379.730499 1164.541870,379.919952 1157.662231,379.565979 &#10;&#9;C1156.332764,379.497589 1154.884644,377.467133 1153.880127,376.063385 &#10;&#9;C1148.654297,368.759369 1143.568848,361.354858 1138.388062,354.018158 &#10;&#9;C1137.849976,353.256195 1137.005371,352.710693 1135.886475,351.681763 &#10;&#9;C1130.550781,359.281555 1125.091919,366.389160 1120.409302,373.975922 &#10;&#9;C1117.581177,378.558044 1114.302490,380.367615 1109.027954,379.887177 &#10;&#9;C1104.309204,379.457367 1099.520508,379.796753 1093.561768,379.796753 &#10;&#9;C1102.764160,367.129700 1111.150879,355.426147 1119.715332,343.854034 &#10;&#9;C1125.197144,336.446991 1125.180786,336.632263 1119.661499,329.113434 &#10;&#9;C1112.082886,318.788940 1104.727661,308.300446 1097.293945,297.869965 &#10;&#9;C1096.851807,297.249603 1096.562500,296.520233 1095.765869,295.020142 &#10;&#9;C1101.740234,295.020142 1106.990967,295.020142 1112.702148,295.016907 &#10;z" stroke="none" opacity="1.000000" fill="#85C496"/>
<path d="M1340.997192,294.784363 &#10;&#9;C1343.334961,294.693146 1344.653931,295.454224 1344.391357,298.157654 &#10;&#9;C1344.170898,300.428864 1344.345947,302.738495 1344.345947,305.960144 &#10;&#9;C1347.648804,303.201385 1350.305664,300.982208 1353.503906,298.399628 &#10;&#9;C1359.897339,295.042847 1366.003418,293.413208 1372.827637,294.276276 &#10;&#9;C1372.827637,300.740967 1372.827637,306.908112 1372.827637,313.111572 &#10;&#9;C1355.275269,311.417999 1346.040283,321.505981 1345.954224,337.002411 &#10;&#9;C1345.823975,338.118103 1345.693726,339.233826 1345.556396,341.107849 &#10;&#9;C1345.583252,345.212738 1345.617065,348.559296 1345.510498,352.323395 &#10;&#9;C1345.463257,354.192963 1345.556519,355.645050 1345.565430,357.550812 &#10;&#9;C1345.405884,364.646698 1345.330933,371.288910 1344.969238,378.076874 &#10;&#9;C1344.433105,378.564941 1344.183838,378.907227 1343.485107,379.359253 &#10;&#9;C1338.709229,379.377380 1334.382935,379.285736 1329.841553,378.854706 &#10;&#9;C1329.088257,376.538452 1328.090820,374.563690 1328.081665,372.584381 &#10;&#9;C1327.972534,348.954315 1328.047485,325.323425 1327.941650,301.693268 &#10;&#9;C1327.932861,299.736115 1326.959595,297.783295 1326.501221,295.552551 &#10;&#9;C1326.698853,295.139709 1326.829712,295.002808 1327.340454,294.920135 &#10;&#9;C1328.481689,294.919189 1329.242920,294.864044 1330.455811,294.891052 &#10;&#9;C1334.270630,294.910278 1337.633911,294.847321 1340.997192,294.784363 &#10;z" stroke="none" opacity="1.000000" fill="#424339"/>
<path d="M768.830750,316.866974 &#10;&#9;C768.831116,309.567261 768.831116,302.749146 768.831116,295.456482 &#10;&#9;C775.221008,295.456482 781.249939,295.456482 787.670654,295.456482 &#10;&#9;C787.670654,323.412354 787.670654,351.274872 787.670654,379.460388 &#10;&#9;C781.503784,379.460388 775.590271,379.460388 768.830383,379.460388 &#10;&#9;C768.830383,358.650665 768.830383,337.999634 768.830750,316.866974 &#10;z" stroke="none" opacity="1.000000" fill="#83C395"/>
<path d="M1326.960449,294.865967 &#10;&#9;C1326.829712,295.002808 1326.698853,295.139709 1326.360596,295.951721 &#10;&#9;C1326.146118,322.811829 1326.162354,348.996948 1326.099243,375.181824 &#10;&#9;C1326.092285,378.046082 1326.250366,380.300079 1330.056519,379.194122 &#10;&#9;C1334.382935,379.285736 1338.709229,379.377380 1343.875244,379.366028 &#10;&#9;C1344.895142,378.819061 1345.075562,378.375061 1345.255859,377.931091 &#10;&#9;C1345.330933,371.288910 1345.405884,364.646698 1345.828247,357.392212 &#10;&#9;C1346.000732,355.155212 1345.825928,353.530548 1345.651123,351.905884 &#10;&#9;C1345.617065,348.559296 1345.583252,345.212738 1345.678711,341.424316 &#10;&#9;C1351.384399,344.263977 1349.927979,349.531921 1349.684448,354.502014 &#10;&#9;C1349.388794,360.533112 1349.087524,366.569885 1349.072388,372.604919 &#10;&#9;C1349.068237,374.269501 1350.075073,375.936584 1350.670532,377.763397 &#10;&#9;C1348.408813,382.379486 1344.393799,383.203186 1339.368286,383.144501 &#10;&#9;C1334.021240,383.082001 1328.610107,384.905060 1323.319092,384.546539 &#10;&#9;C1317.016602,384.119507 1310.751587,382.485931 1304.585205,380.921875 &#10;&#9;C1300.194458,379.808167 1296.043335,377.765686 1291.669312,376.557098 &#10;&#9;C1290.701172,376.289642 1289.312866,378.018982 1287.993774,378.406769 &#10;&#9;C1286.779663,378.763672 1285.398560,378.552673 1284.030273,378.250183 &#10;&#9;C1285.180664,377.113159 1286.343750,376.230682 1287.609619,375.535126 &#10;&#9;C1316.836060,359.476868 1315.351074,313.779510 1288.185425,299.328796 &#10;&#9;C1294.161011,298.387329 1300.335693,297.523926 1306.539795,297.162109 &#10;&#9;C1308.009766,297.076355 1309.577881,298.673737 1312.320068,300.155853 &#10;&#9;C1309.704956,301.216919 1308.703735,301.651306 1307.682495,302.032440 &#10;&#9;C1304.298096,303.295685 1303.316895,306.176697 1305.299927,309.075775 &#10;&#9;C1307.247681,311.923340 1314.340088,314.113098 1317.482178,312.558777 &#10;&#9;C1320.417480,311.106812 1321.249756,309.520050 1320.078491,305.510834 &#10;&#9;C1318.967896,301.709381 1320.530640,296.605713 1322.261475,292.664917 &#10;&#9;C1323.580811,289.661194 1327.281250,289.618011 1330.716309,290.610840 &#10;&#9;C1332.458252,291.114349 1334.588379,290.363342 1336.527710,290.075104 &#10;&#9;C1339.585327,289.620636 1341.468384,290.415497 1340.996094,294.375671 &#10;&#9;C1337.633911,294.847321 1334.270630,294.910278 1330.442993,294.541229 &#10;&#9;C1329.439941,293.473999 1328.901367,292.838776 1328.362793,292.203552 &#10;&#9;C1327.895386,293.091064 1327.427979,293.978516 1326.960449,294.865967 &#10;M1312.399414,334.337646 &#10;&#9;C1312.831787,332.703674 1313.264160,331.069702 1313.696411,329.435730 &#10;&#9;C1314.228394,329.438049 1314.760498,329.440369 1315.292480,329.442657 &#10;&#9;C1315.503906,333.720703 1316.591919,338.188110 1315.718384,342.231781 &#10;&#9;C1314.455811,348.076355 1314.037476,355.004639 1306.282959,356.762848 &#10;&#9;C1307.802490,358.914124 1308.900391,360.468475 1309.998169,362.022827 &#10;&#9;C1309.657837,362.312500 1309.317383,362.602142 1308.976929,362.891815 &#10;&#9;C1307.583008,362.320618 1306.189087,361.749420 1304.732300,361.152466 &#10;&#9;C1302.586304,370.724304 1302.586304,370.724335 1310.274170,375.158447 &#10;&#9;C1316.075195,378.504272 1320.868896,375.904541 1320.961914,369.246368 &#10;&#9;C1320.998657,366.618286 1320.433960,363.982819 1320.457031,361.353424 &#10;&#9;C1320.573120,348.075928 1320.803345,334.799408 1320.946899,321.522064 &#10;&#9;C1320.954956,320.786011 1320.544678,320.045410 1320.341919,319.350372 &#10;&#9;C1313.359863,320.443573 1309.733154,327.014557 1312.399414,334.337646 &#10;z" stroke="none" opacity="1.000000" fill="none"/>
<path d="M1388.928833,361.727844 &#10;&#9;C1396.642700,369.672333 1405.593750,374.385620 1416.610596,375.792419 &#10;&#9;C1414.045044,378.551605 1411.218872,380.730408 1408.740479,383.250977 &#10;&#9;C1408.390747,383.606567 1409.495239,386.496033 1410.341431,386.733154 &#10;&#9;C1414.089233,387.783569 1417.976807,388.793182 1421.835571,388.882721 &#10;&#9;C1427.593994,389.016357 1433.370850,388.363953 1439.139771,388.045959 &#10;&#9;C1430.809692,395.903564 1420.829712,394.826263 1411.133057,392.367249 &#10;&#9;C1405.017334,390.816376 1399.363892,387.441925 1393.099121,384.709259 &#10;&#9;C1392.582031,385.598175 1391.687012,387.136505 1390.549072,388.898376 &#10;&#9;C1388.134888,388.693970 1385.891968,388.478027 1383.815430,387.772156 &#10;&#9;C1382.103271,387.190277 1380.588379,386.028229 1378.739258,384.983856 &#10;&#9;C1377.662231,386.250061 1376.129028,388.052399 1374.346191,390.148376 &#10;&#9;C1378.414429,393.571960 1376.659424,395.655151 1372.301636,396.678192 &#10;&#9;C1373.051025,402.313812 1368.172852,406.087341 1362.371460,404.615234 &#10;&#9;C1359.504028,403.887604 1356.672607,403.017151 1352.568359,401.855713 &#10;&#9;C1352.568359,406.388214 1352.568359,410.235352 1352.568359,414.261414 &#10;&#9;C1349.537598,413.521179 1345.321289,412.935638 1341.535278,411.333252 &#10;&#9;C1340.151611,410.747681 1339.790161,407.746979 1338.837524,405.561615 &#10;&#9;C1340.197632,404.838074 1341.192993,404.359680 1342.137207,403.795776 &#10;&#9;C1344.204102,402.561340 1344.820557,400.943207 1342.332275,399.764221 &#10;&#9;C1337.097290,397.283875 1340.998901,392.630219 1339.579590,389.287292 &#10;&#9;C1342.525513,388.624664 1345.461792,387.912567 1348.425415,387.341858 &#10;&#9;C1349.006104,387.230042 1349.900269,388.025055 1350.298218,387.794586 &#10;&#9;C1355.958374,384.516907 1359.903931,386.743988 1362.887207,392.777374 &#10;&#9;C1366.840820,386.537903 1370.442749,381.326874 1373.535034,375.829193 &#10;&#9;C1376.194946,371.100250 1378.929199,367.246826 1384.458374,369.879669 &#10;&#9;C1385.980225,366.829865 1387.220093,364.345123 1388.928833,361.727844 &#10;M1391.191162,379.406860 &#10;&#9;C1397.193115,380.440186 1397.581055,380.161652 1401.152832,371.044434 &#10;&#9;C1397.216309,372.023193 1394.096313,372.357788 1391.481689,373.686951 &#10;&#9;C1390.558838,374.156128 1390.871460,377.055817 1391.191162,379.406860 &#10;M1384.553955,374.162140 &#10;&#9;C1382.771484,377.078400 1383.244873,377.902710 1388.415283,379.508240 &#10;&#9;C1387.108276,377.341553 1386.181763,375.805725 1384.553955,374.162140 &#10;M1421.771606,391.961792 &#10;&#9;C1422.183838,391.838898 1422.596069,391.716003 1423.008301,391.593079 &#10;&#9;C1422.905518,391.379364 1422.802734,391.165649 1422.699951,390.951904 &#10;&#9;C1422.225342,391.259735 1421.750854,391.567566 1421.771606,391.961792 &#10;z" stroke="none" opacity="1.000000" fill="none"/>
<path d="M667.839600,316.575348 &#10;&#9;C673.098145,316.317139 675.127563,320.145874 676.798706,324.374023 &#10;&#9;C673.051575,328.519714 672.767273,340.569275 676.312012,345.798920 &#10;&#9;C678.257385,344.517212 680.212280,343.229218 682.391296,341.793640 &#10;&#9;C683.614075,343.781738 684.519348,345.253693 685.470947,346.800873 &#10;&#9;C689.860474,342.070862 688.175476,334.310730 680.385132,325.996918 &#10;&#9;C684.994324,325.996918 688.560059,325.996918 692.526123,325.998657 &#10;&#9;C692.368958,343.587616 691.811462,361.174896 691.241760,379.147583 &#10;&#9;C685.341858,379.147583 679.119202,379.147583 672.214722,379.147583 &#10;&#9;C672.214722,376.262115 672.219971,373.335541 672.213806,370.408997 &#10;&#9;C672.186523,357.601593 672.537048,344.776306 671.937927,331.995605 &#10;&#9;C671.700012,326.919525 669.353821,321.942230 667.839600,316.575348 &#10;z" stroke="none" opacity="1.000000" fill="#424339"/>
<path d="M1552.188232,617.579834 &#10;&#9;C1540.650024,621.614990 1533.273071,629.368164 1529.015869,642.197693 &#10;&#9;C1524.713379,629.238403 1517.081787,621.310608 1503.877441,617.093140 &#10;&#9;C1516.710083,612.688293 1524.781616,605.035461 1528.956543,591.740479 &#10;&#9;C1532.707764,602.793335 1538.468994,610.126953 1547.706665,614.387512 &#10;&#9;C1549.381958,615.160156 1550.863037,616.353699 1552.188232,617.579834 &#10;z" stroke="none" opacity="1.000000" fill="none"/>
<path d="M1346.331055,336.918335 &#10;&#9;C1346.040283,321.505981 1355.275269,311.417999 1372.827637,313.111572 &#10;&#9;C1372.827637,306.908112 1372.827637,300.740967 1372.827637,294.276276 &#10;&#9;C1366.003418,293.413208 1359.897339,295.042847 1353.699219,298.113770 &#10;&#9;C1351.277222,295.103668 1353.880249,294.755096 1355.801392,294.052490 &#10;&#9;C1358.546143,293.048706 1361.252930,291.870361 1364.075806,291.167938 &#10;&#9;C1367.590942,290.293182 1371.191528,289.590393 1374.791626,289.343658 &#10;&#9;C1375.743042,289.278442 1377.755859,291.225891 1377.694092,292.142242 &#10;&#9;C1377.398438,296.530609 1383.468994,299.945038 1379.678467,304.593262 &#10;&#9;C1378.677002,305.821381 1376.677734,306.235840 1375.192261,308.298645 &#10;&#9;C1378.440063,308.298645 1381.687744,308.298645 1384.935547,308.298645 &#10;&#9;C1384.926392,305.799438 1385.570801,303.059082 1384.758057,300.856323 &#10;&#9;C1383.468384,297.360840 1381.205200,294.224548 1379.357056,290.942139 &#10;&#9;C1383.084229,287.799164 1385.044434,288.342133 1386.012817,292.758209 &#10;&#9;C1387.543091,299.736176 1392.387085,301.691650 1398.508911,298.054565 &#10;&#9;C1401.716675,296.148804 1405.206543,294.717926 1408.705078,293.005890 &#10;&#9;C1408.599731,291.595520 1408.483765,290.043671 1408.312866,287.755432 &#10;&#9;C1412.782349,289.252502 1416.621948,290.759338 1420.591064,291.744965 &#10;&#9;C1421.928833,292.077209 1423.593628,291.080719 1425.111572,290.702240 &#10;&#9;C1426.894287,290.257782 1428.679810,289.825043 1430.464111,289.387207 &#10;&#9;C1430.647583,291.026459 1430.831055,292.665741 1431.008057,294.684937 &#10;&#9;C1424.921509,294.934723 1418.689819,293.883759 1412.791260,294.854919 &#10;&#9;C1397.841309,297.316345 1387.832520,306.225037 1382.604980,320.879089 &#10;&#9;C1382.256348,319.542877 1382.308472,317.860168 1381.878296,316.311432 &#10;&#9;C1381.536377,315.080414 1380.842407,313.400604 1379.875977,313.026062 &#10;&#9;C1378.626221,312.541748 1376.021606,312.642914 1375.610474,313.384430 &#10;&#9;C1373.213013,317.710266 1368.975464,318.115906 1364.962280,318.926117 &#10;&#9;C1360.516846,319.823639 1357.480469,322.024017 1355.966309,326.460388 &#10;&#9;C1355.519287,327.769928 1353.668457,329.820801 1352.978271,329.632812 &#10;&#9;C1347.721680,328.200684 1347.957886,331.492859 1347.904175,334.874512 &#10;&#9;C1347.893799,335.533966 1347.126221,336.181335 1346.331055,336.918335 &#10;z" stroke="none" opacity="1.000000" fill="none"/>
<path d="M1200.000000,353.949585 &#10;&#9;C1208.535156,354.906708 1213.172241,360.254913 1212.609497,368.009979 &#10;&#9;C1212.068115,375.472900 1207.121704,380.615234 1200.428833,380.673401 &#10;&#9;C1193.173462,380.736450 1187.572388,375.610901 1187.150024,368.521790 &#10;&#9;C1186.682251,360.670593 1191.516235,355.004791 1200.000000,353.949585 &#10;z" stroke="none" opacity="1.000000" fill="#44453C"/>
<path d="M777.257690,258.177094 &#10;&#9;C786.087830,258.714905 791.507019,264.128967 790.765564,271.247406 &#10;&#9;C790.099365,277.642914 785.926392,281.777283 779.813416,282.098175 &#10;&#9;C772.489685,282.482635 767.203979,279.092316 766.098389,273.301056 &#10;&#9;C764.808899,266.546753 767.942261,261.088623 774.443481,258.811432 &#10;&#9;C775.222656,258.538483 776.048645,258.398834 777.257690,258.177094 &#10;z" stroke="none" opacity="1.000000" fill="#85C596"/>
<path d="M725.180603,318.342407 &#10;&#9;C729.872437,321.005646 729.857178,326.040741 729.929688,330.708038 &#10;&#9;C730.144043,344.504974 730.002319,358.307434 729.999939,372.107727 &#10;&#9;C729.999634,373.821411 729.999939,375.535095 729.999939,377.248779 &#10;&#9;C730.578064,377.257172 731.156189,377.265564 731.734314,377.273956 &#10;&#9;C731.734314,360.433624 731.734314,343.593262 731.734314,326.752930 &#10;&#9;C732.334656,326.707886 732.935059,326.662811 733.535400,326.617767 &#10;&#9;C733.691101,328.200348 733.977600,329.782562 733.981812,331.365509 &#10;&#9;C734.016174,344.334381 733.997009,357.303345 733.995972,370.272308 &#10;&#9;C733.995361,378.167480 733.998047,378.206543 742.100281,377.960754 &#10;&#9;C743.728516,377.911377 745.343872,377.440491 747.356873,377.090881 &#10;&#9;C747.280762,377.819489 746.949890,378.774811 746.290894,379.361877 &#10;&#9;C745.928772,379.684479 745.014221,379.371918 744.348694,379.371338 &#10;&#9;C739.226868,379.367004 734.105042,379.368958 728.518982,379.368958 &#10;&#9;C728.518982,364.666138 728.825439,350.392242 728.370667,336.142609 &#10;&#9;C728.184387,330.304260 726.353821,324.518341 725.180603,318.342407 &#10;z" stroke="none" opacity="1.000000" fill="#363730"/>
<path d="M373.022614,300.000977 &#10;&#9;C373.681915,298.700867 374.654144,297.461456 374.921021,296.085236 &#10;&#9;C375.252472,294.376068 375.000488,292.553802 376.055023,290.597656 &#10;&#9;C376.365479,291.336121 376.862640,292.051666 376.956512,292.816711 &#10;&#9;C377.630127,298.303925 378.486206,303.790039 378.718628,309.300354 &#10;&#9;C378.821930,311.749878 377.092834,314.256866 377.103394,316.733917 &#10;&#9;C377.131500,323.329437 377.687317,329.921417 377.960266,336.517853 &#10;&#9;C378.066772,339.091644 377.977692,341.673553 377.977692,344.251801 &#10;&#9;C377.508362,344.330292 377.039001,344.408752 376.569672,344.487244 &#10;&#9;C375.658600,341.441193 374.747528,338.395172 373.382507,334.858887 &#10;&#9;C372.959900,322.912781 372.991241,311.456879 373.022614,300.000977 &#10;z" stroke="none" opacity="1.000000" fill="none"/>
<path d="M1381.516113,323.047791 &#10;&#9;C1381.527344,328.359314 1381.193481,333.715973 1380.798584,339.534912 &#10;&#9;C1377.471436,336.512238 1374.294800,332.936798 1370.899170,329.582825 &#10;&#9;C1369.338379,328.041138 1367.348633,326.933807 1365.035400,325.986389 &#10;&#9;C1363.296875,323.397308 1365.206421,322.986877 1367.647583,323.003021 &#10;&#9;C1372.155396,323.032776 1376.663330,323.062927 1381.516113,323.047791 &#10;z" stroke="none" opacity="1.000000" fill="none"/>
<path d="M372.877258,299.669617 &#10;&#9;C372.991241,311.456879 372.959900,322.912781 372.975220,334.743561 &#10;&#9;C372.420837,338.190308 371.819855,341.262207 371.077362,344.656982 &#10;&#9;C370.957611,341.631439 371.055237,338.281525 370.988007,334.934906 &#10;&#9;C370.692413,320.216248 370.349152,305.498535 370.037048,290.322021 &#10;&#9;C370.684326,291.345123 371.317657,292.826660 372.039612,294.937927 &#10;&#9;C372.255737,296.111023 372.383240,296.654327 372.510742,297.197662 &#10;&#9;C372.584442,297.911194 372.658173,298.624725 372.877258,299.669617 &#10;z" stroke="none" opacity="1.000000" fill="#44453C"/>
<path d="M747.823914,373.520569 &#10;&#9;C747.166504,373.112183 746.090759,372.242310 746.091797,371.373718 &#10;&#9;C746.110657,354.801239 746.256226,338.228943 746.646973,321.346161 &#10;&#9;C747.261292,331.264587 747.696655,341.491516 747.915039,351.723053 &#10;&#9;C748.066772,358.831970 747.920166,365.947205 747.823914,373.520569 &#10;z" stroke="none" opacity="1.000000" fill="#363730"/>
<path d="M429.434570,379.286804 &#10;&#9;C428.889313,375.168396 431.002991,375.743439 433.997528,377.824158 &#10;&#9;C433.997528,363.977783 433.955170,350.910309 434.045135,337.843781 &#10;&#9;C434.058014,335.977325 434.711212,334.115326 435.443481,332.133423 &#10;&#9;C435.818909,347.688232 435.818909,363.360809 435.818909,379.386078 &#10;&#9;C433.468781,379.386078 431.679199,379.386078 429.434570,379.286804 &#10;z" stroke="none" opacity="1.000000" fill="#363730"/>
<path d="M434.820801,304.572784 &#10;&#9;C433.920563,302.798615 433.008881,300.556213 432.267914,298.733734 &#10;&#9;C432.081818,299.858917 431.789398,301.626831 431.496979,303.394714 &#10;&#9;C431.469147,294.975647 425.426117,297.165253 420.850494,297.008911 &#10;&#9;C419.854584,296.974884 418.856384,297.009521 417.388672,297.010803 &#10;&#9;C416.864044,296.837769 416.809967,296.666443 417.309753,296.137665 &#10;&#9;C418.141296,295.645020 418.419006,295.509888 418.696716,295.374725 &#10;&#9;C423.916412,295.374725 429.136139,295.374725 434.809357,295.374725 &#10;&#9;C434.809357,298.287811 434.809357,301.196167 434.820801,304.572784 &#10;z" stroke="none" opacity="1.000000" fill="#363730"/>
<path d="M616.150391,378.403381 &#10;&#9;C617.748169,377.412933 619.383545,376.816711 621.018921,376.220490 &#10;&#9;C620.944397,376.477600 620.869873,376.734680 620.795349,376.991791 &#10;&#9;C625.289062,377.316711 629.782715,377.641632 634.751587,377.971283 &#10;&#9;C635.037964,378.391418 634.844421,379.171661 634.660889,379.169342 &#10;&#9;C628.502686,379.091553 622.345398,378.939148 616.150391,378.403381 &#10;z" stroke="none" opacity="1.000000" fill="#363730"/>
<path d="M1381.147461,345.047852 &#10;&#9;C1382.607910,347.935730 1383.705566,351.078705 1384.822021,354.543396 &#10;&#9;C1381.535156,356.880859 1379.818237,356.016113 1380.027832,352.083862 &#10;&#9;C1380.148682,349.816559 1380.523926,347.562836 1381.147461,345.047852 &#10;z" stroke="none" opacity="1.000000" fill="none"/>
<path d="M648.402466,312.605713 &#10;&#9;C651.496887,308.991028 655.539856,309.330475 659.886475,311.456299 &#10;&#9;C656.267151,312.058746 652.536255,312.293640 648.402466,312.605713 &#10;z" stroke="none" opacity="1.000000" fill="#424339"/>
<path d="M635.343872,337.549744 &#10;&#9;C634.846802,335.700836 634.470947,333.434662 634.117859,331.164948 &#10;&#9;C634.105957,331.088104 634.393005,330.875244 634.422058,330.895508 &#10;&#9;C634.680237,331.076080 634.911621,331.294891 635.331299,331.698364 &#10;&#9;C635.497375,333.640198 635.483032,335.386047 635.343872,337.549744 &#10;z" stroke="none" opacity="1.000000" fill="#363730"/>
<path d="M416.983398,378.432922 &#10;&#9;C419.448608,378.173157 421.995300,378.358551 424.806458,378.862274 &#10;&#9;C422.402252,379.079773 419.733551,378.978943 416.983398,378.432922 &#10;z" stroke="none" opacity="1.000000" fill="#363730"/>
<path d="M1352.229736,418.711060 &#10;&#9;C1352.779053,418.023346 1353.379150,417.650208 1353.979370,417.277039 &#10;&#9;C1354.160400,417.680023 1354.341309,418.083038 1354.522339,418.486084 &#10;&#9;C1353.775024,418.665955 1353.027832,418.845795 1352.229736,418.711060 &#10;z" stroke="none" opacity="1.000000" fill="none"/>
<path d="M1384.802246,355.753510 &#10;&#9;C1385.737305,356.391907 1386.411865,357.350800 1387.175903,358.607117 &#10;&#9;C1386.357422,357.961060 1385.449707,357.017517 1384.802246,355.753510 &#10;z" stroke="none" opacity="1.000000" fill="none"/>
<path d="M370.152618,288.790527 &#10;&#9;C369.809448,288.133087 369.639954,287.273468 369.699951,286.220459 &#10;&#9;C370.061737,286.880829 370.194000,287.734619 370.152618,288.790527 &#10;z" stroke="none" opacity="1.000000" fill="#44453C"/>
<path d="M661.752930,312.376343 &#10;&#9;C662.627441,312.487457 663.734192,312.842072 664.937866,313.557434 &#10;&#9;C664.018188,313.485382 663.001648,313.052612 661.752930,312.376343 &#10;z" stroke="none" opacity="1.000000" fill="#424339"/>
<path d="M665.261230,314.207977 &#10;&#9;C666.004700,314.494476 666.910461,315.033417 667.793091,315.929504 &#10;&#9;C666.987732,315.677917 666.205627,315.069183 665.261230,314.207977 &#10;z" stroke="none" opacity="1.000000" fill="#424339"/>
<path d="M1388.917725,391.089752 &#10;&#9;C1389.024048,391.629425 1388.821289,392.177856 1388.371094,392.887482 &#10;&#9;C1388.285400,392.398590 1388.447021,391.748566 1388.917725,391.089752 &#10;z" stroke="none" opacity="1.000000" fill="none"/>
<path d="M372.782867,297.059662 &#10;&#9;C372.383240,296.654327 372.255737,296.111023 372.169006,295.287903 &#10;&#9;C372.491516,295.645966 372.773254,296.283813 372.782867,297.059662 &#10;z" stroke="none" opacity="1.000000" fill="none"/>
<path d="M635.264648,351.769836 &#10;&#9;C635.060059,351.747009 634.939697,351.451355 634.999756,351.053528 &#10;&#9;C635.236389,351.133209 635.292664,351.315094 635.264648,351.769836 &#10;z" stroke="none" opacity="1.000000" fill="#363730"/>
<path d="M418.429565,295.220459 &#10;&#9;C418.419006,295.509888 418.141296,295.645020 417.413300,295.888855 &#10;&#9;C417.362793,295.687073 417.762604,295.376617 418.429565,295.220459 &#10;z" stroke="none" opacity="1.000000" fill="#43443B"/>
<path d="M284.289856,421.393036 &#10;&#9;C230.527298,441.857605 172.974533,415.717346 149.513748,366.876648 &#10;&#9;C122.854660,311.377747 145.300980,244.761902 200.139877,216.770645 &#10;&#9;C226.976227,203.072632 255.176254,201.545029 283.370300,212.543213 &#10;&#9;C358.203369,241.734695 379.065887,338.086945 323.134125,395.883270 &#10;&#9;C312.266876,407.112793 299.442505,415.771729 284.289856,421.393036 &#10;M256.207031,339.109894 &#10;&#9;C256.738647,319.596680 240.695007,303.051605 221.476135,300.210266 &#10;&#9;C202.671204,297.430115 184.033157,309.015045 177.649872,327.444733 &#10;&#9;C171.444092,345.361938 179.186203,365.318054 196.107819,375.022064 &#10;&#9;C210.400604,383.218536 232.140762,381.136414 240.870346,370.861420 &#10;&#9;C237.683655,365.658966 234.529144,360.509064 232.066162,356.488129 &#10;&#9;C225.861465,357.754120 220.116562,359.877197 214.365036,359.895264 &#10;&#9;C203.498322,359.929474 194.975922,350.303192 195.275711,339.659821 &#10;&#9;C195.592758,328.403503 203.818436,320.430756 214.863754,319.744812 &#10;&#9;C224.885971,319.122406 235.800644,326.271057 236.977386,340.926086 &#10;&#9;C237.331604,361.373718 253.370255,378.661194 273.199310,379.968292 &#10;&#9;C296.384796,381.496674 314.557068,366.936737 317.418701,343.334991 &#10;&#9;C319.543213,325.813263 307.969696,307.619415 291.805115,303.477356 &#10;&#9;C288.675201,308.716766 285.545319,313.956177 282.176941,319.594788 &#10;&#9;C283.735931,320.383972 285.354706,321.130035 286.904114,321.999695 &#10;&#9;C296.889526,327.604401 300.233307,340.612579 294.283813,350.616791 &#10;&#9;C288.522400,360.304718 275.698608,362.922791 265.873993,356.765198 &#10;&#9;C259.549866,352.801483 258.297882,346.203125 256.207031,339.109894 &#10;M278.984406,311.445831 &#10;&#9;C290.737030,294.349731 289.687744,273.897736 276.326691,259.644073 &#10;&#9;C263.069977,245.501694 242.103165,242.615753 225.182785,252.604401 &#10;&#9;C211.374908,260.755676 202.653961,280.166473 206.843018,293.272095 &#10;&#9;C213.119583,293.272095 219.369019,293.272095 225.596466,293.272095 &#10;&#9;C225.882858,289.468781 225.489914,285.155792 226.700531,281.353271 &#10;&#9;C227.857285,277.719940 230.078827,273.905914 232.940826,271.478027 &#10;&#9;C235.940033,268.933716 240.112152,267.153534 244.028351,266.431091 &#10;&#9;C253.662949,264.653839 263.684906,270.926788 266.296692,280.703369 &#10;&#9;C267.428253,284.939087 267.083801,290.006714 265.948456,294.310974 &#10;&#9;C264.102692,301.308380 258.364807,305.302307 252.226868,308.062012 &#10;&#9;C255.511948,313.625397 258.673218,318.979126 262.540710,325.528900 &#10;&#9;C268.042877,320.886841 273.297791,316.453369 278.984406,311.445831 &#10;z" stroke="none" opacity="1.000000" fill="none"/>
<path d="M1406.080078,318.121094 &#10;&#9;C1414.226685,310.435791 1423.461304,309.103912 1433.078613,313.233398 &#10;&#9;C1442.436523,317.251709 1446.466187,325.131287 1446.273804,335.261902 &#10;&#9;C1446.084717,345.219696 1441.762695,352.458038 1432.472046,356.378662 &#10;&#9;C1422.722412,360.492920 1410.980225,357.645874 1404.868164,349.837341 &#10;&#9;C1398.057129,341.136139 1398.457153,328.186920 1406.080078,318.121094 &#10;z" stroke="none" opacity="1.000000" fill="none"/>
<path d="M1439.367188,387.987244 &#10;&#9;C1433.370850,388.363953 1427.593994,389.016357 1421.835571,388.882721 &#10;&#9;C1417.976807,388.793182 1414.089233,387.783569 1410.341431,386.733154 &#10;&#9;C1409.495239,386.496033 1408.390747,383.606567 1408.740479,383.250977 &#10;&#9;C1411.218872,380.730408 1414.045044,378.551605 1416.959839,375.961121 &#10;&#9;C1419.116577,375.623383 1421.073730,375.588440 1423.703003,375.949371 &#10;&#9;C1425.798584,376.555786 1427.242188,377.037323 1428.642578,376.933838 &#10;&#9;C1439.514282,376.130524 1439.872803,376.417572 1440.052856,387.147675 &#10;&#9;C1440.043213,387.492004 1439.890381,387.752289 1439.367188,387.987244 &#10;z" stroke="none" opacity="1.000000" fill="none"/>
<path d="M1440.373535,386.995300 &#10;&#9;C1439.872803,376.417572 1439.514282,376.130524 1428.642578,376.933838 &#10;&#9;C1427.242188,377.037323 1425.798584,376.555786 1424.117676,376.021606 &#10;&#9;C1430.779053,374.605103 1437.432007,372.849731 1443.082397,368.404480 &#10;&#9;C1444.164062,369.492859 1445.034912,370.247314 1445.905884,371.001770 &#10;&#9;C1445.927246,376.860718 1444.572266,382.266846 1440.373535,386.995300 &#10;z" stroke="none" opacity="1.000000" fill="none"/>
<path d="M1445.998291,370.673004 &#10;&#9;C1445.034912,370.247314 1444.164062,369.492859 1443.504272,368.315857 &#10;&#9;C1443.715454,367.893341 1443.743774,367.806427 1444.264893,368.188904 &#10;&#9;C1445.170166,368.713409 1445.554321,368.855438 1445.938477,368.997467 &#10;&#9;C1445.989258,369.446381 1446.040039,369.895294 1445.998291,370.673004 &#10;z" stroke="none" opacity="1.000000" fill="none"/>
<path d="M1446.026367,368.632385 &#10;&#9;C1445.554321,368.855438 1445.170166,368.713409 1444.303589,368.167358 &#10;&#9;C1444.383301,366.960815 1444.945557,366.158264 1446.114258,364.489990 &#10;&#9;C1446.114258,366.465210 1446.114258,367.366241 1446.026367,368.632385 &#10;z" stroke="none" opacity="1.000000" fill="none"/>
<path d="M965.919434,321.221222 &#10;&#9;C971.414429,330.341400 971.435425,339.679260 967.958313,348.913544 &#10;&#9;C964.220520,358.840118 954.682373,364.163605 944.490845,362.861877 &#10;&#9;C934.512756,361.587402 926.171814,353.461060 925.195740,342.870819 &#10;&#9;C924.691772,337.403961 924.992981,331.537445 926.472046,326.285706 &#10;&#9;C929.009399,317.276550 935.805542,312.226349 945.112000,311.302612 &#10;&#9;C953.710388,310.449158 960.771851,313.578735 965.919434,321.221222 &#10;z" stroke="none" opacity="1.000000" fill="none"/>
<path d="M1067.056152,321.069061 &#10;&#9;C1068.284790,323.911072 1069.349731,326.420135 1070.702271,329.607239 &#10;&#9;C1055.327515,329.607239 1040.991333,329.607239 1026.661255,329.607239 &#10;&#9;C1026.014771,321.835999 1031.875854,314.215088 1040.603027,311.362183 &#10;&#9;C1051.139893,307.917694 1061.038208,311.447113 1067.056152,321.069061 &#10;z" stroke="none" opacity="1.000000" fill="none"/>
<path d="M1277.885254,360.096252 &#10;&#9;C1268.708252,364.778656 1259.968628,364.457855 1252.235840,358.309418 &#10;&#9;C1242.991455,350.959015 1241.299683,340.655212 1243.829590,329.793518 &#10;&#9;C1246.830688,316.908752 1256.864502,309.866089 1269.000854,311.245361 &#10;&#9;C1280.670898,312.571655 1289.022949,322.422028 1289.397949,335.226685 &#10;&#9;C1289.692871,345.294373 1287.056641,354.006378 1277.885254,360.096252 &#10;z" stroke="none" opacity="1.000000" fill="none"/>
<path d="M1329.841553,378.854706 &#10;&#9;C1326.250366,380.300079 1326.092285,378.046082 1326.099243,375.181824 &#10;&#9;C1326.162354,348.996948 1326.146118,322.811829 1326.293701,296.227631 &#10;&#9;C1326.959595,297.783295 1327.932861,299.736115 1327.941650,301.693268 &#10;&#9;C1328.047485,325.323425 1327.972534,348.954315 1328.081665,372.584381 &#10;&#9;C1328.090820,374.563690 1329.088257,376.538452 1329.841553,378.854706 &#10;z" stroke="none" opacity="1.000000" fill="#363730"/>
<path d="M1345.510498,352.323395 &#10;&#9;C1345.825928,353.530548 1346.000732,355.155212 1345.912720,356.938477 &#10;&#9;C1345.556519,355.645050 1345.463257,354.192963 1345.510498,352.323395 &#10;z" stroke="none" opacity="1.000000" fill="#D4D5D2"/>
<path d="M1327.340576,294.920166 &#10;&#9;C1327.427979,293.978516 1327.895386,293.091064 1328.362793,292.203552 &#10;&#9;C1328.901367,292.838776 1329.439941,293.473999 1329.991455,294.459045 &#10;&#9;C1329.242920,294.864044 1328.481689,294.919189 1327.340576,294.920166 &#10;z" stroke="none" opacity="1.000000" fill="none"/>
<path d="M1344.969238,378.076874 &#10;&#9;C1345.075562,378.375061 1344.895142,378.819061 1344.324707,379.256287 &#10;&#9;C1344.183838,378.907227 1344.433105,378.564941 1344.969238,378.076874 &#10;z" stroke="none" opacity="1.000000" fill="#363730"/>
<path d="M1312.060181,334.373535 &#10;&#9;C1309.733154,327.014557 1313.359863,320.443573 1320.341919,319.350372 &#10;&#9;C1320.544678,320.045410 1320.954956,320.786011 1320.946899,321.522064 &#10;&#9;C1320.803345,334.799408 1320.573120,348.075928 1320.457031,361.353424 &#10;&#9;C1320.433960,363.982819 1320.998657,366.618286 1320.961914,369.246368 &#10;&#9;C1320.868896,375.904541 1316.075195,378.504272 1310.274170,375.158447 &#10;&#9;C1302.586304,370.724335 1302.586304,370.724304 1304.732300,361.152466 &#10;&#9;C1306.189087,361.749420 1307.583008,362.320618 1308.976929,362.891815 &#10;&#9;C1309.317383,362.602142 1309.657837,362.312500 1309.998169,362.022827 &#10;&#9;C1308.900391,360.468475 1307.802490,358.914124 1306.282959,356.762848 &#10;&#9;C1314.037476,355.004639 1314.455811,348.076355 1315.718384,342.231781 &#10;&#9;C1316.591919,338.188110 1315.503906,333.720703 1315.292480,329.442657 &#10;&#9;C1314.760498,329.440369 1314.228394,329.438049 1313.696411,329.435730 &#10;&#9;C1313.264160,331.069702 1312.831787,332.703674 1312.060181,334.373535 &#10;z" stroke="none" opacity="1.000000" fill="none"/>
<path d="M1390.905518,379.126343 &#10;&#9;C1390.871460,377.055817 1390.558838,374.156128 1391.481689,373.686951 &#10;&#9;C1394.096313,372.357788 1397.216309,372.023193 1401.152832,371.044434 &#10;&#9;C1397.581055,380.161652 1397.193115,380.440186 1390.905518,379.126343 &#10;z" stroke="none" opacity="1.000000" fill="none"/>
<path d="M1384.904541,374.216003 &#10;&#9;C1386.181763,375.805725 1387.108276,377.341553 1388.415283,379.508240 &#10;&#9;C1383.244873,377.902710 1382.771484,377.078400 1384.904541,374.216003 &#10;z" stroke="none" opacity="1.000000" fill="none"/>
<path d="M1421.523926,391.918579 &#10;&#9;C1421.750854,391.567566 1422.225342,391.259735 1422.699951,390.951904 &#10;&#9;C1422.802734,391.165649 1422.905518,391.379364 1423.008301,391.593079 &#10;&#9;C1422.596069,391.716003 1422.183838,391.838898 1421.523926,391.918579 &#10;z" stroke="none" opacity="1.000000" fill="none"/>
<path d="M237.013672,340.049988 &#10;&#9;C235.800644,326.271057 224.885971,319.122406 214.863754,319.744812 &#10;&#9;C203.818436,320.430756 195.592758,328.403503 195.275711,339.659821 &#10;&#9;C194.975922,350.303192 203.498322,359.929474 214.365036,359.895264 &#10;&#9;C220.116562,359.877197 225.861465,357.754120 232.066162,356.488129 &#10;&#9;C234.529144,360.509064 237.683655,365.658966 240.870346,370.861420 &#10;&#9;C232.140762,381.136414 210.400604,383.218536 196.107819,375.022064 &#10;&#9;C179.186203,365.318054 171.444092,345.361938 177.649872,327.444733 &#10;&#9;C184.033157,309.015045 202.671204,297.430115 221.476135,300.210266 &#10;&#9;C240.695007,303.051605 256.738647,319.596680 255.677063,339.563141 &#10;&#9;C249.102615,340.027588 243.058151,340.038788 237.013672,340.049988 &#10;z" stroke="none" opacity="1.000000" fill="#84C693"/>
<path d="M278.768555,311.732880 &#10;&#9;C273.297791,316.453369 268.042877,320.886841 262.540710,325.528900 &#10;&#9;C258.673218,318.979126 255.511948,313.625397 252.226868,308.062012 &#10;&#9;C258.364807,305.302307 264.102692,301.308380 265.948456,294.310974 &#10;&#9;C267.083801,290.006714 267.428253,284.939087 266.296692,280.703369 &#10;&#9;C263.684906,270.926788 253.662949,264.653839 244.028351,266.431091 &#10;&#9;C240.112152,267.153534 235.940033,268.933716 232.940826,271.478027 &#10;&#9;C230.078827,273.905914 227.857285,277.719940 226.700531,281.353271 &#10;&#9;C225.489914,285.155792 225.882858,289.468781 225.596466,293.272095 &#10;&#9;C219.369019,293.272095 213.119583,293.272095 206.843018,293.272095 &#10;&#9;C202.653961,280.166473 211.374908,260.755676 225.182785,252.604401 &#10;&#9;C242.103165,242.615753 263.069977,245.501694 276.326691,259.644073 &#10;&#9;C289.687744,273.897736 290.737030,294.349731 278.768555,311.732880 &#10;z" stroke="none" opacity="1.000000" fill="#133F1A"/>
<path d="M236.995529,340.488037 &#10;&#9;C243.058151,340.038788 249.102615,340.027588 255.625504,340.010254 &#10;&#9;C258.297882,346.203125 259.549866,352.801483 265.873993,356.765198 &#10;&#9;C275.698608,362.922791 288.522400,360.304718 294.283813,350.616791 &#10;&#9;C300.233307,340.612579 296.889526,327.604401 286.904114,321.999695 &#10;&#9;C285.354706,321.130035 283.735931,320.383972 282.176941,319.594788 &#10;&#9;C285.545319,313.956177 288.675201,308.716766 291.804871,303.477844 &#10;&#9;C307.969696,307.619415 319.543213,325.813263 317.418701,343.334991 &#10;&#9;C314.557068,366.936737 296.384796,381.496674 273.199310,379.968292 &#10;&#9;C253.370255,378.661194 237.331604,361.373718 236.995529,340.488037 &#10;z" stroke="none" opacity="1.000000" fill="#A7E061"/>
</svg>